<?xml version="1.0" standalone="no"?>
<!DOCTYPE svg PUBLIC "-//W3C//DTD SVG 20010904//EN"
 "http://www.w3.org/TR/2001/REC-SVG-20010904/DTD/svg10.dtd">
<svg version="1.0" xmlns="http://www.w3.org/2000/svg"
 width="433.000000pt" height="433.000000pt" viewBox="0 0 433.000000 433.000000"
 preserveAspectRatio="xMidYMid meet">
<metadata>
Created by potrace 1.14, written by Peter Selinger 2001-2017
</metadata>
<g transform="translate(0.000000,433.000000) scale(0.100000,-0.100000)"
fill="#000000" stroke="none">
<path d="M2158 4275 c-2 -2 -45 -5 -95 -6 -50 -1 -115 -6 -145 -10 -29 -5 -73
-11 -98 -14 -169 -20 -463 -118 -640 -212 -439 -235 -767 -596 -975 -1075 -56
-131 -123 -397 -140 -558 -59 -558 108 -1133 452 -1560 104 -129 285 -298 435
-406 166 -121 435 -247 658 -308 218 -59 572 -88 780 -62 195 25 406 75 525
127 11 4 48 19 83 33 144 57 401 214 518 317 245 214 415 431 542 692 397 809
239 1775 -393 2412 -125 126 -209 195 -351 288 -301 198 -660 315 -1014 333
-58 3 -113 7 -122 8 -9 2 -18 2 -20 1z"/>
</g>
</svg>
