<?xml version="1.0" encoding="utf-8"?><svg xml:space="preserve" viewBox="0 0 100 100" y="0" x="0" xmlns="http://www.w3.org/2000/svg" id="圖層_1" version="1.1" width="28px" height="28px" xmlns:xlink="http://www.w3.org/1999/xlink" style="width:100%;height:100%;animation-play-state:paused" ><g class="ldl-scale" style="transform-origin:50% 50% 0px;transform:rotate(0deg) scale(1);animation-play-state:paused" ><path stroke-miterlimit="10" stroke-width="3.5" stroke="#333" fill="#e0e0e0" d="M80.285 36.124c3.038-5.263 2.516-11.67-.778-16.767L73.126 30.41l-10.874 1.656-4.003-10.245 6.382-11.053c-6.061-.304-11.871 2.447-14.91 7.71-2.863 4.959-2.746 11.253-.079 16.421 1.125 2.179.935 4.806-.427 6.845L27.508 75.135c-2.77 4.15-1.664 9.913 2.644 12.432 4.305 2.518 9.836.854 12.042-3.612l18.195-35.76c1.086-2.199 3.265-3.677 5.715-3.792 5.809-.274 11.318-3.321 14.181-8.279z" style="stroke:rgb(51, 51, 51);fill:rgb(157, 107, 88);animation-play-state:paused" ></path>
<path d="M51.712 50.322l-16.334 28.29" stroke-miterlimit="10" stroke-linejoin="round" stroke-linecap="round" stroke-width="3.5" stroke="#333" fill="none" style="stroke:rgb(51, 51, 51);animation-play-state:paused" ></path>
<metadata xmlns:d="https://loading.io/stock/" style="animation-play-state:paused" ><d:name style="animation-play-state:paused" >wrench</d:name>
<d:tags style="animation-play-state:paused" >wrench,spanner,hand tool,lever</d:tags>
<d:license style="animation-play-state:paused" >by</d:license>
<d:slug style="animation-play-state:paused" >a9pco3</d:slug></metadata></g><!-- generated by https://loading.io/ --></svg>